# xmcd
# 
# Track frame offsets:
#     150
#     24253
#     61273
#     74258
#     103950
#     121778
#     160730
#     182255
#     198775
#     215353
#     233780
#     250905
#     279990
#     296003
#     321888
# 
# Disc length: 4551
# 
# Revision: 6
# Processed by: cddbd v1.5.2PL0 Copyright (c) Steve Scherf et al.
# Submitted via: BonkEnc v1.0.8
# 
DISCID=cc11c50f
DTITLE=Brass Construction - The Best Of - Movin' and Changin'
DYEAR=1993
DGENRE=Pop/Funk
TTITLE0=Goodnews
TTITLE1=Changin'
TTITLE2=What's On Your Mind (Expression)
TTITLE3=Love
TTITLE4=Ha Cha Cha (Funktion)
TTITLE5=Movin'
TTITLE6=Wake Up
TTITLE7=The Message (Inspiration)
TTITLE8=L-O-V-E-U
TTITLE9=Help Yourself
TTITLE10=Perceptions (What's The Right Direction)
TTITLE11=Get Up To Get Down
TTITLE12=Can You See The Light
TTITLE13=Walkin' The Line
TTITLE14=Give And Take
EXTD=YEAR: 1993
EXTT0=
EXTT1=
EXTT2=
EXTT3=
EXTT4=
EXTT5=
EXTT6=
EXTT7=
EXTT8=
EXTT9=
EXTT10=
EXTT11=
EXTT12=
EXTT13=
EXTT14=
PLAYORDER=
